HIERARCHY
ROOT joint_Root
{
	OFFSET 0.0 0.0 0.0
	CHANNELS 6 Xposition Yposition Zposition Zrotation Xrotation Yrotation 
	JOINT Hips
	{
		OFFSET -17.1583 93.1646 452.98
		CHANNELS 6 Xposition Yposition Zposition Zrotation Xrotation Yrotation 
		JOINT Spine
		{
			OFFSET 15.7357 0.0 0.0
			CHANNELS 6 Xposition Yposition Zposition Zrotation Xrotation Yrotation 
			JOINT Chest
			{
				OFFSET 8.98455 -0.406207 0.0
				CHANNELS 6 Xposition Yposition Zposition Zrotation Xrotation Yrotation 
				JOINT Neck
				{
					OFFSET 16.3773 0.0 0.0
					CHANNELS 6 Xposition Yposition Zposition Zrotation Xrotation Yrotation 
					JOINT Head
					{
						OFFSET 6.45672 0.0 0.0
						CHANNELS 6 Xposition Yposition Zposition Zrotation Xrotation Yrotation 
						End Site
						{
							OFFSET 0.0 0.0 0.0
						}
					}
				}
				JOINT Shoulder_L
				{
					OFFSET 12.9942 -0.242716 4.98039
					CHANNELS 6 Xposition Yposition Zposition Zrotation Xrotation Yrotation 
					JOINT UpperArm_L
					{
						OFFSET 5.34809 0.0 0.0
						CHANNELS 6 Xposition Yposition Zposition Zrotation Xrotation Yrotation 
						JOINT LowerArm_L
						{
							OFFSET 24.3286 1.87007e-05 0.0
							CHANNELS 6 Xposition Yposition Zposition Zrotation Xrotation Yrotation 
							JOINT Hand_L
							{
								OFFSET 22.2916 0.0 0.0
								CHANNELS 6 Xposition Yposition Zposition Zrotation Xrotation Yrotation 
								End Site
								{
									OFFSET 0.0 0.0 0.0
								}
							}
						}
					}
				}
				JOINT Shoulder_R
				{
					OFFSET 12.9945 -0.242716 -4.98039
					CHANNELS 6 Xposition Yposition Zposition Zrotation Xrotation Yrotation 
					JOINT UpperArm_R
					{
						OFFSET -5.34813 0.0 0.0
						CHANNELS 6 Xposition Yposition Zposition Zrotation Xrotation Yrotation 
						JOINT LowerArm_R
						{
							OFFSET -24.3289 0.000322201 0.0
							CHANNELS 6 Xposition Yposition Zposition Zrotation Xrotation Yrotation 
							JOINT Hand_R
							{
								OFFSET -22.2915 -0.000108084 0.0
								CHANNELS 6 Xposition Yposition Zposition Zrotation Xrotation Yrotation 
								End Site
								{
									OFFSET 0.0 0.0 0.0
								}
							}
						}
					}
				}
			}
		}
		JOINT UpperLeg_L
		{
			OFFSET -2.19248 -6.46944 0.0
			CHANNELS 6 Xposition Yposition Zposition Zrotation Xrotation Yrotation 
			JOINT LowerLeg_L
			{
				OFFSET 39.0811 0.0 -1.23785e-05
				CHANNELS 6 Xposition Yposition Zposition Zrotation Xrotation Yrotation 
				JOINT Foot_L
				{
					OFFSET 40.9854 0.0 -1.26872e-05
					CHANNELS 6 Xposition Yposition Zposition Zrotation Xrotation Yrotation 
					JOINT Toes_L
					{
						OFFSET 11.7543 0.0 0.0
						CHANNELS 6 Xposition Yposition Zposition Zrotation Xrotation Yrotation 
						End Site
						{
							OFFSET 0.0 0.0 0.0
						}
					}
				}
			}
		}
		JOINT UpperLeg_R
		{
			OFFSET -2.19251 6.46944 0.0
			CHANNELS 6 Xposition Yposition Zposition Zrotation Xrotation Yrotation 
			JOINT LowerLeg_R
			{
				OFFSET -39.0811 -0.00228153 -0.0401928
				CHANNELS 6 Xposition Yposition Zposition Zrotation Xrotation Yrotation 
				JOINT Foot_R
				{
					OFFSET -40.9854 0.0 0.0
					CHANNELS 6 Xposition Yposition Zposition Zrotation Xrotation Yrotation 
					JOINT Toes_R
					{
						OFFSET -11.7543 0.0 0.0
						CHANNELS 6 Xposition Yposition Zposition Zrotation Xrotation Yrotation 
						End Site
						{
							OFFSET 0.0 0.0 0.0
						}
					}
				}
			}
		}
	}
}
MOTION
Frames:	8
Frame Time:	0.0333333
0.000000 0.000000 0.000000 0.000000 0.000000 -0.000000 0.864035 93.170800 53.010700 -84.600300 -2.600050 163.363000 15.735700 0.000005 -0.000001 38.947100 85.245700 -35.282100 8.984550 -0.406207 -0.000000 -1.535290 -7.690700 7.233830 16.377300 -0.000001 -0.000001 -5.984830 3.859620 -0.741295 6.456720 -0.000001 -0.000000 1.189410 8.935670 -7.444250 12.994200 -0.242716 4.980390 -91.974800 7.095780 -74.403900 5.348090 -0.000007 -0.000001 -71.832300 -11.508600 -1.535370 24.328600 0.000019 0.000005 54.116400 -3.296830 -92.382500 22.291600 -0.000001 0.000005 42.991700 3.899620 25.634900 12.994500 -0.242716 -4.980390 90.605700 -2.140290 -74.193900 -5.348130 -0.000001 -0.000004 -61.581300 -14.549900 25.907700 -24.328900 0.000322 -0.000009 3.711860 9.968280 -20.548200 -22.291500 -0.000108 -0.000004 50.344800 5.235480 1.814970 -2.192480 -6.469440 -0.000000 -175.955000 -2.515620 -1.433480 39.081100 -0.000007 -0.000012 -0.000726 0.002554 15.866600 40.985400 -0.000006 -0.000013 1.890830 10.403900 -49.599900 11.754300 -0.000000 0.000003 -0.080890 -0.394437 -32.956600 -2.192510 6.469440 -0.000001 -172.526000 -5.116600 127.579000 -39.081100 -0.002282 -0.040193 -0.062745 0.030013 65.515400 -40.985400 0.000008 0.000006 -4.682750 -19.973700 -67.742600 -11.754300 -0.000006 -0.000006 -0.000257 0.171892 -9.601250
0.000000 0.000000 0.000000 0.000000 0.000000 -0.000000 0.736359 95.109600 42.616300 -85.490800 -0.690243 163.567000 15.735700 0.000005 -0.000001 34.628300 85.028200 -31.174800 8.984550 -0.406207 -0.000000 -1.856810 -8.469900 6.778290 16.377300 -0.000001 -0.000001 -5.808380 4.579840 -0.624953 6.456720 -0.000001 -0.000000 2.087380 10.622400 -8.157540 12.994200 -0.242716 4.980390 -92.021500 7.316910 -74.509500 5.348090 -0.000007 -0.000001 -70.694400 -10.787300 -1.497510 24.328600 0.000019 0.000005 54.668800 -5.120000 -93.619600 22.291600 -0.000001 0.000005 42.303200 3.922950 25.309900 12.994500 -0.242716 -4.980390 90.756100 -2.605390 -73.810900 -5.348130 -0.000001 -0.000004 -58.839600 -15.776800 28.990600 -24.328900 0.000322 -0.000009 4.862530 11.620700 -22.899900 -22.291500 -0.000108 -0.000004 49.011100 5.197600 2.779030 -2.192480 -6.469440 -0.000000 -176.919000 -7.349370 3.913470 39.081100 -0.000007 -0.000012 0.011097 -0.048338 12.930300 40.985400 -0.000006 -0.000013 -2.225790 10.657000 -35.615000 11.754300 -0.000000 0.000003 0.002422 0.070257 -13.727300 -2.192510 6.469440 -0.000001 -175.815000 -8.459620 131.949000 -39.081100 -0.002282 -0.040193 -0.006876 0.009773 46.048900 -40.985400 0.000008 0.000006 -5.720670 -14.168800 -71.154200 -11.754300 -0.000006 -0.000006 -0.000574 0.176832 -9.400590
0.000000 0.000000 0.000000 0.000000 0.000000 -0.000000 0.561862 95.549000 32.034500 -87.338800 0.009594 164.663000 15.735700 0.000005 -0.000001 30.827300 84.697600 -28.074100 8.984550 -0.406207 -0.000000 -2.110690 -9.341110 5.342840 16.377300 -0.000001 -0.000001 -5.010690 5.014010 -0.674489 6.456720 -0.000001 -0.000000 2.867520 11.318400 -7.638580 12.994200 -0.242716 4.980390 -91.935900 7.036700 -74.575000 5.348090 -0.000007 -0.000001 -70.228500 -9.288730 -0.719209 24.328600 0.000019 0.000005 54.744700 -4.983430 -93.513600 22.291600 -0.000001 0.000005 39.907800 3.938230 25.096300 12.994500 -0.242716 -4.980390 90.700900 -2.338340 -73.307500 -5.348130 -0.000001 -0.000004 -57.178400 -15.626100 30.451900 -24.328900 0.000322 -0.000009 5.178890 11.608500 -24.252300 -22.291500 -0.000108 -0.000004 48.904200 5.167060 3.532000 -2.192480 -6.469440 -0.000000 -179.010000 -7.254930 5.638470 39.081100 -0.000007 -0.000012 0.023080 -0.056304 22.289500 40.985400 -0.000006 -0.000013 -1.775980 9.107320 -37.257400 11.754300 -0.000000 0.000003 0.002317 0.061854 -14.068000 -2.192510 6.469440 -0.000001 -178.890000 -8.994570 138.541000 -39.081100 -0.002282 -0.040193 0.008915 -0.011191 26.609800 -40.985400 0.000008 0.000006 -8.178470 -6.744720 -74.210800 -11.754300 -0.000006 -0.000006 -0.001141 0.185063 -9.066100
0.000000 0.000000 0.000000 0.000000 0.000000 -0.000000 0.393421 94.806800 21.286800 -88.942800 0.022375 166.354000 15.735700 0.000005 -0.000001 31.404600 84.449200 -29.230400 8.984550 -0.406207 -0.000000 -1.801760 -9.654390 4.203380 16.377300 -0.000001 -0.000001 -4.466470 5.088230 -1.077120 6.456720 -0.000001 -0.000000 3.522930 11.388000 -7.130950 12.994200 -0.242716 4.980390 -91.829000 6.798680 -74.904100 5.348090 -0.000007 -0.000001 -71.259600 -7.729750 0.369735 24.328600 0.000019 0.000005 52.689000 -2.237090 -91.702800 22.291600 -0.000001 0.000005 38.921600 3.964260 24.731500 12.994500 -0.242716 -4.980390 90.628600 -2.060510 -73.030300 -5.348130 -0.000001 -0.000004 -56.975100 -16.257400 29.902500 -24.328900 0.000322 -0.000009 4.707420 10.445700 -24.431800 -22.291500 -0.000108 -0.000004 48.587900 5.162140 3.651060 -2.192480 -6.469440 -0.000000 179.185000 -5.751260 5.871550 39.081100 -0.000007 -0.000012 0.054352 -0.077618 35.001000 40.985400 -0.000006 -0.000013 -4.950720 6.609230 -36.838800 11.754300 -0.000000 0.000003 0.002297 0.060615 -14.118200 -2.192510 6.469440 -0.000001 178.274000 -10.260100 144.109000 -39.081100 -0.002282 -0.040193 0.003781 -0.001763 14.286400 -40.985400 0.000008 0.000006 -9.847390 -5.974340 -77.137500 -11.754300 -0.000006 -0.000006 -0.000595 0.177137 -9.388180
0.000000 0.000000 0.000000 0.000000 0.000000 -0.000000 0.505750 93.051900 10.492200 -89.116700 0.536434 168.069000 15.735700 0.000005 -0.000001 36.989800 84.592700 -34.863200 8.984550 -0.406207 -0.000000 -1.092920 -8.800710 4.173850 16.377300 -0.000001 -0.000001 -3.972950 5.107730 -1.227110 6.456720 -0.000001 -0.000000 3.780590 11.027700 -7.771000 12.994200 -0.242716 4.980390 -91.907500 7.036930 -74.791700 5.348090 -0.000007 -0.000001 -72.853900 -5.907100 1.801270 24.328600 0.000019 0.000005 50.044200 2.355220 -88.026800 22.291600 -0.000001 0.000005 38.314600 3.994180 24.308300 12.994500 -0.242716 -4.980390 90.495000 -1.621440 -73.020800 -5.348130 -0.000001 -0.000004 -58.183100 -15.749600 27.378800 -24.328900 0.000322 -0.000009 4.215610 9.362060 -24.381700 -22.291500 -0.000108 -0.000004 48.472600 5.180630 3.200520 -2.192480 -6.469440 -0.000000 179.137000 -5.662010 4.750830 39.081100 -0.000007 -0.000012 0.135231 -0.119857 48.448100 40.985400 -0.000006 -0.000013 -7.724600 4.291730 -36.153400 11.754300 -0.000000 0.000003 0.002247 0.057734 -14.235000 -2.192510 6.469440 -0.000001 179.550000 -9.519570 146.467000 -39.081100 -0.002282 -0.040193 0.000497 0.010877 14.605000 -40.985400 0.000008 0.000006 -9.099540 -7.653540 -80.127500 -11.754300 -0.000006 -0.000006 -0.000490 0.175546 -9.452810
0.000000 0.000000 0.000000 0.000000 0.000000 -0.000000 0.920233 90.513200 0.383428 -87.725700 1.009710 167.814000 15.735700 0.000005 -0.000001 42.664100 85.340300 -39.974900 8.984550 -0.406207 -0.000000 -1.280230 -7.063640 5.302910 16.377300 -0.000001 -0.000001 -3.616160 4.799550 -1.092180 6.456720 -0.000001 -0.000000 3.559240 10.355300 -8.855020 12.994200 -0.242716 4.980390 -92.332000 8.355160 -74.344900 5.348090 -0.000007 -0.000001 -73.206100 -4.280300 3.318000 24.328600 0.000019 0.000005 48.732300 8.436480 -82.665800 22.291600 -0.000001 0.000005 38.257300 4.090080 22.936300 12.994500 -0.242716 -4.980390 90.102800 -0.339472 -73.143200 -5.348130 -0.000001 -0.000004 -59.655000 -14.243600 23.271400 -24.328900 0.000322 -0.000009 3.906100 8.419870 -25.006500 -22.291500 -0.000108 -0.000004 49.319800 5.194050 2.870040 -2.192480 -6.469440 -0.000000 -178.473000 -7.659420 -1.261830 39.081100 -0.000007 -0.000012 0.295119 -0.142917 64.159900 40.985400 -0.000006 -0.000013 -6.486960 2.205140 -36.553000 11.754300 -0.000000 0.000003 0.002129 0.052004 -14.467400 -2.192510 6.469440 -0.000001 -175.669000 -4.958930 142.721000 -39.081100 -0.002282 -0.040193 0.030510 -0.053817 26.814100 -40.985400 0.000008 0.000006 -8.130780 -5.189320 -74.962000 -11.754300 -0.000006 -0.000006 0.002442 0.095350 -12.706500
0.000000 0.000000 0.000000 0.000000 0.000000 -0.000000 1.479730 87.199600 -9.413980 -86.434100 -0.220280 168.771000 15.735700 0.000005 -0.000001 53.671400 85.513300 -50.473600 8.984550 -0.406207 -0.000000 -0.372193 -5.541730 6.378050 16.377300 -0.000001 -0.000001 -3.634330 4.066930 -1.110000 6.456720 -0.000001 -0.000000 2.550540 9.020330 -9.448170 12.994200 -0.242716 4.980390 -92.787000 9.813780 -74.060400 5.348090 -0.000007 -0.000001 -72.453600 -4.223880 4.452500 24.328600 0.000019 0.000005 51.186100 17.111000 -76.690000 22.291600 -0.000001 0.000005 42.777400 4.158920 21.919600 12.994500 -0.242716 -4.980390 89.564600 1.436720 -73.137900 -5.348130 -0.000001 -0.000004 -61.581900 -12.562300 17.827500 -24.328900 0.000322 -0.000009 3.716240 7.502280 -26.457400 -22.291500 -0.000108 -0.000004 51.854200 5.231240 1.922390 -2.192480 -6.469440 -0.000000 -175.196000 -7.995060 -8.710440 39.081100 -0.000007 -0.000012 0.500768 -0.083069 80.580800 40.985400 -0.000006 -0.000013 -6.794800 -3.780390 -37.269200 11.754300 -0.000000 0.000003 0.002168 0.053781 -14.395300 -2.192510 6.469440 -0.000001 -170.865000 -0.440453 139.256000 -39.081100 -0.002282 -0.040193 0.305505 -0.308650 44.399100 -40.985400 0.000008 0.000006 2.845420 -3.920550 -72.885100 -11.754300 -0.000006 -0.000006 -0.003655 0.215472 -7.829110
0.000000 0.000000 0.000000 0.000000 0.000000 -0.000000 2.109980 84.392200 -18.863800 -85.403900 -1.508480 170.873000 15.735700 0.000005 -0.000001 68.240400 84.640000 -64.720600 8.984550 -0.406207 -0.000000 2.332780 -4.137770 7.119470 16.377300 -0.000001 -0.000001 -5.324330 3.602310 -1.081970 6.456720 -0.000001 -0.000000 1.055570 7.674450 -9.997700 12.994200 -0.242716 4.980390 -93.138100 10.889100 -73.816500 5.348090 -0.000007 -0.000001 -70.618200 -8.161530 6.811070 24.328600 0.000019 0.000005 49.648500 22.569700 -71.937200 22.291600 -0.000001 0.000005 45.305700 4.115910 22.556100 12.994500 -0.242716 -4.980390 89.087600 3.031040 -73.238100 -5.348130 -0.000001 -0.000004 -64.896700 -9.889820 9.402870 -24.328900 0.000322 -0.000009 3.563650 6.137740 -30.226400 -22.291500 -0.000108 -0.000004 53.601600 5.251860 1.379000 -2.192480 -6.469440 -0.000000 -172.834000 -7.017750 -17.754200 39.081100 -0.000007 -0.000012 0.461308 0.039344 94.873500 40.985400 -0.000006 -0.000013 -4.417880 -5.370220 -39.062600 11.754300 -0.000000 0.000003 0.002049 0.048626 -14.604300 -2.192510 6.469440 -0.000001 -169.467000 1.960620 142.354000 -39.081100 -0.002282 -0.040193 -0.004471 0.005266 55.616000 -40.985400 0.000008 0.000006 -0.783768 -2.611510 -82.725100 -11.754300 -0.000006 -0.000006 -0.006135 0.239721 -6.840980
